<svg xmlns="http://www.w3.org/2000/svg" xmlns:xlink="http://www.w3.org/1999/xlink" version="1.1" data-diagram-type="ACTIVITY" style="width:1599px;height:1125px;background:#FFFFFF;" width="1599px" height="1125px" viewBox="0 0 1599 1125" zoomAndPan="magnify" preserveAspectRatio="none" contentStyleType="text/css"><?plantuml 1.2026.7beta11?><defs/><g font-family="sans-serif" lengthAdjust="spacing"><g class="title" data-source-line="2"><text x="425.01" y="35.421" fill="#000" font-size="22" textLength="747.216" font-weight="700" font-family="Verdana">Activity Swimlane - Quản lý môn học và phân công sinh viên</text></g><rect x="15" y="59.354" width="1562.235" height="20.953" fill="#FFF" style="stroke:#FFF;stroke-width:1;"/><ellipse cx="494.112" cy="95.308" rx="10" ry="10" fill="#FFF" style="stroke:#000;stroke-width:1;"/><polygon points="416.183,125.308,572.042,125.308,584.042,137.308,572.042,149.308,416.183,149.308,404.183,137.308,416.183,125.308" fill="#FFF" style="stroke:#000;stroke-width:1;stroke-linejoin:miter;stroke-miterlimit:10;"/><text x="416.183" y="141.116" fill="#000" font-size="11" textLength="155.858" font-family="Verdana">Người dùng là quản trị viên?</text><text x="389.773" y="134.713" fill="#000" font-size="11" textLength="14.411" font-family="Verdana">Có</text><text x="584.042" y="134.713" fill="#000" font-size="11" textLength="50.784" font-family="Verdana">Sinh viên</text><rect x="189.395" y="169.308" width="166.039" height="33.969" fill="#FFF" style="stroke:#000;stroke-width:1;" rx="12.5" ry="12.5"/><text x="199.395" y="190.446" fill="#000" font-size="12" textLength="146.039" font-family="Verdana">Quản trị viên đăng nhập</text><rect x="143.584" y="379.616" width="257.662" height="33.969" fill="#FFF" style="stroke:#000;stroke-width:1;" rx="12.5" ry="12.5"/><text x="153.584" y="400.755" fill="#000" font-size="12" textLength="237.662" font-family="Verdana">Nhập tên, mã, tín chỉ, trạng thái và ảnh</text><polygon points="218.98,331.214,325.849,331.214,337.849,343.214,325.849,355.214,218.98,355.214,206.98,343.214,218.98,331.214" fill="#FFF" style="stroke:#000;stroke-width:1;stroke-linejoin:miter;stroke-miterlimit:10;"/><text x="276.415" y="365.424" fill="#000" font-size="11" textLength="14.411" font-family="Verdana">Có</text><text x="218.98" y="347.022" fill="#000" font-size="11" textLength="106.869" font-family="Verdana">Tạo hoặc sửa môn?</text><text x="337.849" y="340.62" fill="#000" font-size="11" textLength="34.869" font-family="Verdana">Không</text><polygon points="231.863,702.089,312.967,702.089,324.967,714.089,312.967,726.089,231.863,726.089,219.863,714.089,231.863,702.089" fill="#FFF" style="stroke:#000;stroke-width:1;stroke-linejoin:miter;stroke-miterlimit:10;"/><text x="231.863" y="717.897" fill="#000" font-size="11" textLength="81.104" font-family="Verdana">Gán sinh viên?</text><text x="205.452" y="711.495" fill="#000" font-size="11" textLength="14.411" font-family="Verdana">Có</text><text x="324.967" y="711.495" fill="#000" font-size="11" textLength="68.283" font-family="Verdana">Gỡ sinh viên</text><rect x="21" y="746.089" width="160.543" height="33.969" fill="#FFF" style="stroke:#000;stroke-width:1;" rx="12.5" ry="12.5"/><text x="31" y="767.228" fill="#000" font-size="12" textLength="140.543" font-family="Verdana">Chọn sinh viên cần gán</text><line x1="15" y1="59.354" x2="15" y2="1109.933" style="stroke:#000;stroke-width:1;"/><rect x="940.769" y="223.276" width="136.941" height="33.969" fill="#FFF" style="stroke:#000;stroke-width:1;" rx="12.5" ry="12.5"/><text x="950.769" y="244.415" fill="#000" font-size="12" textLength="116.941" font-family="Verdana">Mở /admin/subjects</text><rect x="915.122" y="277.245" width="188.234" height="33.969" fill="#FFF" style="stroke:#000;stroke-width:1;" rx="12.5" ry="12.5"/><text x="925.122" y="298.384" fill="#000" font-size="12" textLength="168.234" font-family="Verdana">Hiển thị danh sách môn học</text><rect x="923.539" y="442.183" width="171.4" height="33.969" fill="#FFF" style="stroke:#000;stroke-width:1;" rx="12.5" ry="12.5"/><text x="933.539" y="463.321" fill="#000" font-size="12" textLength="151.4" font-family="Verdana">Kiểm tra dữ liệu môn học</text><polygon points="968.175,496.151,1050.304,496.151,1062.304,508.151,1050.304,520.151,968.175,520.151,956.175,508.151,968.175,496.151" fill="#FFF" style="stroke:#000;stroke-width:1;stroke-linejoin:miter;stroke-miterlimit:10;"/><text x="968.175" y="511.959" fill="#000" font-size="11" textLength="82.129" font-family="Verdana">Dữ liệu hợp lệ?</text><text x="921.306" y="505.557" fill="#000" font-size="11" textLength="34.869" font-family="Verdana">Không</text><text x="1062.304" y="505.557" fill="#000" font-size="11" textLength="14.411" font-family="Verdana">Có</text><rect x="839.631" y="530.151" width="147.523" height="33.969" fill="#FFF" style="stroke:#000;stroke-width:1;" rx="12.5" ry="12.5"/><text x="849.631" y="551.29" fill="#000" font-size="12" textLength="127.523" font-family="Verdana">Hiển thị lỗi validation</text><ellipse cx="913.393" cy="595.12" rx="11" ry="11" fill="none" style="stroke:#000;stroke-width:1;"/><ellipse cx="913.393" cy="595.12" rx="6" ry="6" fill="#FFF" style="stroke:#000;stroke-width:1;"/><rect x="1056.233" y="530.151" width="97.707" height="33.969" fill="#FFF" style="stroke:#000;stroke-width:1;" rx="12.5" ry="12.5"/><text x="1066.233" y="551.29" fill="#000" font-size="12" textLength="77.707" font-family="Verdana">Lưu môn học</text><rect x="1007.155" y="584.12" width="195.863" height="33.969" fill="#FFF" style="stroke:#000;stroke-width:1;" rx="12.5" ry="12.5"/><text x="1017.155" y="605.259" fill="#000" font-size="12" textLength="175.863" font-family="Verdana">Cập nhật danh sách môn học</text><ellipse cx="1105.086" cy="649.089" rx="11" ry="11" fill="none" style="stroke:#000;stroke-width:1;"/><ellipse cx="1105.086" cy="649.089" rx="6" ry="6" fill="#FFF" style="stroke:#000;stroke-width:1;"/><rect x="712.195" y="800.058" width="251.803" height="33.969" fill="#FFF" style="stroke:#000;stroke-width:1;" rx="12.5" ry="12.5"/><text x="722.195" y="821.196" fill="#000" font-size="12" textLength="231.803" font-family="Verdana">Mở /admin/subjects/subjectId/students</text><rect x="745.778" y="854.026" width="184.637" height="33.969" fill="#FFF" style="stroke:#000;stroke-width:1;" rx="12.5" ry="12.5"/><text x="755.778" y="875.165" fill="#000" font-size="12" textLength="164.637" font-family="Verdana">Hiển thị sinh viên khả dụng</text><polygon points="773.965,907.995,902.227,907.995,914.227,919.995,902.227,931.995,773.965,931.995,761.965,919.995,773.965,907.995" fill="#FFF" style="stroke:#000;stroke-width:1;stroke-linejoin:miter;stroke-miterlimit:10;"/><text x="773.965" y="923.803" fill="#000" font-size="11" textLength="128.262" font-family="Verdana">Sinh viên đã được gán?</text><text x="747.555" y="917.401" fill="#000" font-size="11" textLength="14.411" font-family="Verdana">Có</text><text x="914.227" y="917.401" fill="#000" font-size="11" textLength="34.869" font-family="Verdana">Không</text><rect x="645.825" y="941.995" width="174.02" height="33.969" fill="#FFF" style="stroke:#000;stroke-width:1;" rx="12.5" ry="12.5"/><text x="655.825" y="963.134" fill="#000" font-size="12" textLength="154.02" font-family="Verdana">Hiển thị lỗi gán trùng 409</text><ellipse cx="732.835" cy="1006.964" rx="11" ry="11" fill="none" style="stroke:#000;stroke-width:1;"/><ellipse cx="732.835" cy="1006.964" rx="6" ry="6" fill="#FFF" style="stroke:#000;stroke-width:1;"/><rect x="864.273" y="941.995" width="158.17" height="33.969" fill="#FFF" style="stroke:#000;stroke-width:1;" rx="12.5" ry="12.5"/><text x="874.273" y="963.134" fill="#000" font-size="12" textLength="138.17" font-family="Verdana">Gán sinh viên vào môn</text><rect x="839.845" y="995.964" width="207.025" height="33.969" fill="#FFF" style="stroke:#000;stroke-width:1;" rx="12.5" ry="12.5"/><text x="849.845" y="1017.103" fill="#000" font-size="12" textLength="187.025" font-family="Verdana">Cập nhật danh sách phân công</text><ellipse cx="943.358" cy="1060.933" rx="11" ry="11" fill="none" style="stroke:#000;stroke-width:1;"/><ellipse cx="943.358" cy="1060.933" rx="6" ry="6" fill="#FFF" style="stroke:#000;stroke-width:1;"/><rect x="1079.305" y="746.089" width="202.156" height="33.969" fill="#FFF" style="stroke:#000;stroke-width:1;" rx="12.5" ry="12.5"/><text x="1089.305" y="767.228" fill="#000" font-size="12" textLength="182.156" font-family="Verdana">Chọn sinh viên đang được gán</text><rect x="1090.71" y="800.058" width="179.346" height="33.969" fill="#FFF" style="stroke:#000;stroke-width:1;" rx="12.5" ry="12.5"/><text x="1100.71" y="821.196" fill="#000" font-size="12" textLength="159.346" font-family="Verdana">Gỡ sinh viên khỏi môn học</text><rect x="1076.87" y="854.026" width="207.025" height="33.969" fill="#FFF" style="stroke:#000;stroke-width:1;" rx="12.5" ry="12.5"/><text x="1086.87" y="875.165" fill="#000" font-size="12" textLength="187.025" font-family="Verdana">Cập nhật danh sách phân công</text><ellipse cx="1180.383" cy="918.995" rx="11" ry="11" fill="none" style="stroke:#000;stroke-width:1;"/><ellipse cx="1180.383" cy="918.995" rx="6" ry="6" fill="#FFF" style="stroke:#000;stroke-width:1;"/><rect x="1360.933" y="169.308" width="143.404" height="33.969" fill="#FFF" style="stroke:#000;stroke-width:1;" rx="12.5" ry="12.5"/><text x="1370.933" y="190.446" fill="#000" font-size="12" textLength="123.404" font-family="Verdana">Sinh viên đăng nhập</text><rect x="1348.467" y="223.276" width="168.336" height="33.969" fill="#FFF" style="stroke:#000;stroke-width:1;" rx="12.5" ry="12.5"/><text x="1358.467" y="244.415" fill="#000" font-size="12" textLength="148.336" font-family="Verdana">Mở /student/my-subjects</text><rect x="1293.896" y="277.245" width="277.479" height="33.969" fill="#FFF" style="stroke:#000;stroke-width:1;" rx="12.5" ry="12.5"/><text x="1303.896" y="298.384" fill="#000" font-size="12" textLength="257.479" font-family="Verdana">Lọc môn học theo phân công của sinh viên</text><rect x="1344.931" y="331.214" width="175.408" height="33.969" fill="#FFF" style="stroke:#000;stroke-width:1;" rx="12.5" ry="12.5"/><text x="1354.931" y="352.353" fill="#000" font-size="12" textLength="155.408" font-family="Verdana">Hiển thị môn đã được gán</text><ellipse cx="1432.635" cy="411.183" rx="11" ry="11" fill="none" style="stroke:#000;stroke-width:1;"/><ellipse cx="1432.635" cy="411.183" rx="6" ry="6" fill="#FFF" style="stroke:#000;stroke-width:1;"/><line x1="639.825" y1="59.354" x2="639.825" y2="1109.933" style="stroke:#000;stroke-width:1;"/><line x1="1575.374" y1="59.354" x2="1575.374" y2="1109.933" style="stroke:#000;stroke-width:1;"/><line x1="272.415" y1="355.214" x2="272.415" y2="379.616" style="stroke:#000;stroke-width:1;"/><polygon points="268.415,369.616,272.415,379.616,276.415,369.616,272.415,373.616" fill="#000" style="stroke:#000;stroke-width:1;stroke-linejoin:miter;stroke-miterlimit:10;"/><line x1="337.849" y1="343.214" x2="486.193" y2="343.214" style="stroke:#000;stroke-width:1;"/><polygon points="482.193,514.151,486.193,524.151,490.193,514.151,486.193,518.151" fill="#000" style="stroke:#000;stroke-width:1;stroke-linejoin:miter;stroke-miterlimit:10;"/><line x1="486.193" y1="343.214" x2="486.193" y2="682.089" style="stroke:#000;stroke-width:1;"/><line x1="486.193" y1="682.089" x2="272.415" y2="682.089" style="stroke:#000;stroke-width:1;"/><line x1="272.415" y1="682.089" x2="272.415" y2="702.089" style="stroke:#000;stroke-width:1;"/><polygon points="268.415,692.089,272.415,702.089,276.415,692.089,272.415,696.089" fill="#000" style="stroke:#000;stroke-width:1;stroke-linejoin:miter;stroke-miterlimit:10;"/><line x1="219.863" y1="714.089" x2="101.271" y2="714.089" style="stroke:#000;stroke-width:1;"/><line x1="101.271" y1="714.089" x2="101.271" y2="746.089" style="stroke:#000;stroke-width:1;"/><polygon points="97.271,736.089,101.271,746.089,105.271,736.089,101.271,740.089" fill="#000" style="stroke:#000;stroke-width:1;stroke-linejoin:miter;stroke-miterlimit:10;"/><line x1="404.183" y1="137.308" x2="272.415" y2="137.308" style="stroke:#000;stroke-width:1;"/><line x1="272.415" y1="137.308" x2="272.415" y2="169.308" style="stroke:#000;stroke-width:1;"/><polygon points="268.415,159.308,272.415,169.308,276.415,159.308,272.415,163.308" fill="#000" style="stroke:#000;stroke-width:1;stroke-linejoin:miter;stroke-miterlimit:10;"/><line x1="494.112" y1="105.308" x2="494.112" y2="125.308" style="stroke:#000;stroke-width:1;"/><polygon points="490.112,115.308,494.112,125.308,498.112,115.308,494.112,119.308" fill="#000" style="stroke:#000;stroke-width:1;stroke-linejoin:miter;stroke-miterlimit:10;"/><line x1="1009.24" y1="257.245" x2="1009.24" y2="277.245" style="stroke:#000;stroke-width:1;"/><polygon points="1005.24,267.245,1009.24,277.245,1013.24,267.245,1009.24,271.245" fill="#000" style="stroke:#000;stroke-width:1;stroke-linejoin:miter;stroke-miterlimit:10;"/><line x1="913.393" y1="564.12" x2="913.393" y2="584.12" style="stroke:#000;stroke-width:1;"/><polygon points="909.393,574.12,913.393,584.12,917.393,574.12,913.393,578.12" fill="#000" style="stroke:#000;stroke-width:1;stroke-linejoin:miter;stroke-miterlimit:10;"/><line x1="1105.086" y1="564.12" x2="1105.086" y2="584.12" style="stroke:#000;stroke-width:1;"/><polygon points="1101.086,574.12,1105.086,584.12,1109.086,574.12,1105.086,578.12" fill="#000" style="stroke:#000;stroke-width:1;stroke-linejoin:miter;stroke-miterlimit:10;"/><line x1="1105.086" y1="618.089" x2="1105.086" y2="638.089" style="stroke:#000;stroke-width:1;"/><polygon points="1101.086,628.089,1105.086,638.089,1109.086,628.089,1105.086,632.089" fill="#000" style="stroke:#000;stroke-width:1;stroke-linejoin:miter;stroke-miterlimit:10;"/><line x1="956.175" y1="508.151" x2="913.393" y2="508.151" style="stroke:#000;stroke-width:1;"/><line x1="913.393" y1="508.151" x2="913.393" y2="530.151" style="stroke:#000;stroke-width:1;"/><polygon points="909.393,520.151,913.393,530.151,917.393,520.151,913.393,524.151" fill="#000" style="stroke:#000;stroke-width:1;stroke-linejoin:miter;stroke-miterlimit:10;"/><line x1="1062.304" y1="508.151" x2="1105.086" y2="508.151" style="stroke:#000;stroke-width:1;"/><line x1="1105.086" y1="508.151" x2="1105.086" y2="530.151" style="stroke:#000;stroke-width:1;"/><polygon points="1101.086,520.151,1105.086,530.151,1109.086,520.151,1105.086,524.151" fill="#000" style="stroke:#000;stroke-width:1;stroke-linejoin:miter;stroke-miterlimit:10;"/><line x1="1009.24" y1="476.151" x2="1009.24" y2="496.151" style="stroke:#000;stroke-width:1;"/><polygon points="1005.24,486.151,1009.24,496.151,1013.24,486.151,1009.24,490.151" fill="#000" style="stroke:#000;stroke-width:1;stroke-linejoin:miter;stroke-miterlimit:10;"/><line x1="838.096" y1="834.026" x2="838.096" y2="854.026" style="stroke:#000;stroke-width:1;"/><polygon points="834.096,844.026,838.096,854.026,842.096,844.026,838.096,848.026" fill="#000" style="stroke:#000;stroke-width:1;stroke-linejoin:miter;stroke-miterlimit:10;"/><line x1="732.835" y1="975.964" x2="732.835" y2="995.964" style="stroke:#000;stroke-width:1;"/><polygon points="728.835,985.964,732.835,995.964,736.835,985.964,732.835,989.964" fill="#000" style="stroke:#000;stroke-width:1;stroke-linejoin:miter;stroke-miterlimit:10;"/><line x1="943.358" y1="975.964" x2="943.358" y2="995.964" style="stroke:#000;stroke-width:1;"/><polygon points="939.358,985.964,943.358,995.964,947.358,985.964,943.358,989.964" fill="#000" style="stroke:#000;stroke-width:1;stroke-linejoin:miter;stroke-miterlimit:10;"/><line x1="943.358" y1="1029.933" x2="943.358" y2="1049.933" style="stroke:#000;stroke-width:1;"/><polygon points="939.358,1039.933,943.358,1049.933,947.358,1039.933,943.358,1043.933" fill="#000" style="stroke:#000;stroke-width:1;stroke-linejoin:miter;stroke-miterlimit:10;"/><line x1="761.965" y1="919.995" x2="732.835" y2="919.995" style="stroke:#000;stroke-width:1;"/><line x1="732.835" y1="919.995" x2="732.835" y2="941.995" style="stroke:#000;stroke-width:1;"/><polygon points="728.835,931.995,732.835,941.995,736.835,931.995,732.835,935.995" fill="#000" style="stroke:#000;stroke-width:1;stroke-linejoin:miter;stroke-miterlimit:10;"/><line x1="914.227" y1="919.995" x2="943.358" y2="919.995" style="stroke:#000;stroke-width:1;"/><line x1="943.358" y1="919.995" x2="943.358" y2="941.995" style="stroke:#000;stroke-width:1;"/><polygon points="939.358,931.995,943.358,941.995,947.358,931.995,943.358,935.995" fill="#000" style="stroke:#000;stroke-width:1;stroke-linejoin:miter;stroke-miterlimit:10;"/><line x1="838.096" y1="887.995" x2="838.096" y2="907.995" style="stroke:#000;stroke-width:1;"/><polygon points="834.096,897.995,838.096,907.995,842.096,897.995,838.096,901.995" fill="#000" style="stroke:#000;stroke-width:1;stroke-linejoin:miter;stroke-miterlimit:10;"/><line x1="1180.383" y1="780.058" x2="1180.383" y2="800.058" style="stroke:#000;stroke-width:1;"/><polygon points="1176.383,790.058,1180.383,800.058,1184.383,790.058,1180.383,794.058" fill="#000" style="stroke:#000;stroke-width:1;stroke-linejoin:miter;stroke-miterlimit:10;"/><line x1="1180.383" y1="834.026" x2="1180.383" y2="854.026" style="stroke:#000;stroke-width:1;"/><polygon points="1176.383,844.026,1180.383,854.026,1184.383,844.026,1180.383,848.026" fill="#000" style="stroke:#000;stroke-width:1;stroke-linejoin:miter;stroke-miterlimit:10;"/><line x1="1180.383" y1="887.995" x2="1180.383" y2="907.995" style="stroke:#000;stroke-width:1;"/><polygon points="1176.383,897.995,1180.383,907.995,1184.383,897.995,1180.383,901.995" fill="#000" style="stroke:#000;stroke-width:1;stroke-linejoin:miter;stroke-miterlimit:10;"/><line x1="1432.635" y1="203.276" x2="1432.635" y2="223.276" style="stroke:#000;stroke-width:1;"/><polygon points="1428.635,213.276,1432.635,223.276,1436.635,213.276,1432.635,217.276" fill="#000" style="stroke:#000;stroke-width:1;stroke-linejoin:miter;stroke-miterlimit:10;"/><line x1="1432.635" y1="257.245" x2="1432.635" y2="277.245" style="stroke:#000;stroke-width:1;"/><polygon points="1428.635,267.245,1432.635,277.245,1436.635,267.245,1432.635,271.245" fill="#000" style="stroke:#000;stroke-width:1;stroke-linejoin:miter;stroke-miterlimit:10;"/><line x1="1432.635" y1="311.214" x2="1432.635" y2="331.214" style="stroke:#000;stroke-width:1;"/><polygon points="1428.635,321.214,1432.635,331.214,1436.635,321.214,1432.635,325.214" fill="#000" style="stroke:#000;stroke-width:1;stroke-linejoin:miter;stroke-miterlimit:10;"/><line x1="1432.635" y1="365.183" x2="1432.635" y2="400.183" style="stroke:#000;stroke-width:1;"/><polygon points="1428.635,390.183,1432.635,400.183,1436.635,390.183,1432.635,394.183" fill="#000" style="stroke:#000;stroke-width:1;stroke-linejoin:miter;stroke-miterlimit:10;"/><line x1="272.415" y1="203.276" x2="272.415" y2="208.276" style="stroke:#000;stroke-width:1;"/><line x1="272.415" y1="208.276" x2="1009.24" y2="208.276" style="stroke:#000;stroke-width:1;"/><line x1="1009.24" y1="208.276" x2="1009.24" y2="223.276" style="stroke:#000;stroke-width:1;"/><polygon points="1005.24,213.276,1009.24,223.276,1013.24,213.276,1009.24,217.276" fill="#000" style="stroke:#000;stroke-width:1;stroke-linejoin:miter;stroke-miterlimit:10;"/><line x1="272.415" y1="413.585" x2="272.415" y2="427.183" style="stroke:#000;stroke-width:1;"/><line x1="272.415" y1="427.183" x2="1009.24" y2="427.183" style="stroke:#000;stroke-width:1;"/><line x1="1009.24" y1="427.183" x2="1009.24" y2="442.183" style="stroke:#000;stroke-width:1;"/><polygon points="1005.24,432.183,1009.24,442.183,1013.24,432.183,1009.24,436.183" fill="#000" style="stroke:#000;stroke-width:1;stroke-linejoin:miter;stroke-miterlimit:10;"/><line x1="1009.24" y1="311.214" x2="1009.24" y2="316.214" style="stroke:#000;stroke-width:1;"/><line x1="1009.24" y1="316.214" x2="272.415" y2="316.214" style="stroke:#000;stroke-width:1;"/><line x1="272.415" y1="316.214" x2="272.415" y2="331.214" style="stroke:#000;stroke-width:1;"/><polygon points="268.415,321.214,272.415,331.214,276.415,321.214,272.415,325.214" fill="#000" style="stroke:#000;stroke-width:1;stroke-linejoin:miter;stroke-miterlimit:10;"/><line x1="101.271" y1="780.058" x2="101.271" y2="785.058" style="stroke:#000;stroke-width:1;"/><line x1="101.271" y1="785.058" x2="838.096" y2="785.058" style="stroke:#000;stroke-width:1;"/><line x1="838.096" y1="785.058" x2="838.096" y2="800.058" style="stroke:#000;stroke-width:1;"/><polygon points="834.096,790.058,838.096,800.058,842.096,790.058,838.096,794.058" fill="#000" style="stroke:#000;stroke-width:1;stroke-linejoin:miter;stroke-miterlimit:10;"/><line x1="324.967" y1="714.089" x2="1180.383" y2="714.089" style="stroke:#000;stroke-width:1;"/><line x1="1180.383" y1="714.089" x2="1180.383" y2="746.089" style="stroke:#000;stroke-width:1;"/><polygon points="1176.383,736.089,1180.383,746.089,1184.383,736.089,1180.383,740.089" fill="#000" style="stroke:#000;stroke-width:1;stroke-linejoin:miter;stroke-miterlimit:10;"/><line x1="584.042" y1="137.308" x2="1432.635" y2="137.308" style="stroke:#000;stroke-width:1;"/><line x1="1432.635" y1="137.308" x2="1432.635" y2="169.308" style="stroke:#000;stroke-width:1;"/><polygon points="1428.635,159.308,1432.635,169.308,1436.635,159.308,1432.635,163.308" fill="#000" style="stroke:#000;stroke-width:1;stroke-linejoin:miter;stroke-miterlimit:10;"/><text x="306.899" y="76.063" fill="#000" font-size="18" textLength="41.027" font-family="Verdana">User</text><text x="1074.039" y="76.063" fill="#000" font-size="18" textLength="67.122" font-family="Verdana">System</text><?plantuml-src ZPH1YzD05CVl-HJFsovqgGSljWUHBgoowy9I_G1ZaksC9fFQcLOAlUr1H4HwyYGQWom8PHSKn0HFK_Pxp3VnpQHh9qbBlPHfydzlVk_zNzuTISCuX6546FSaar483tt99anEeV-QnH7X8Hp0sLZd6OT8_O5O_UH0TV7UXudw0aEgldBmyU401ECK9anzvvutUoR2qSmJaeoanyvXxtHmSwsBJmm2zHkr4SQ-AhFAaIxUbN4FzW61EEprr8zz3w1prf30Shwym0ISwdmnxA9erfyA6SOpet-YYy_G9a7CU5kCdxy8VIcCflE8wU824r6JA208AbJgKwUShcTobTW01lcfpjC4QABpNpu8NIo8bTSXCVkfXG69V2tKP2qyBh0jcFXjoz3dAI9Bgb9cksQAebqRwz1ZecE36MC4WK0NLn3X_pVZ2gNH6Rf3vps-oeOGuVaVt34rdfHyzVfH-151ICG28bd2kokLaCdG7iD8X4vz67zoSzt4mESzMxWrGsxhQpqv3zYvTtl9chDyNZVXIANScQmDpU-PQrmD-3g_v330o4qztZGZjuV7GLl8SH3oScpgZNFkU8abPyQaRtomDgM_5YpdAiCVC_MPRs6Qx9kDCLeS0VkTtBjxVuixDODhVJ9ZbbWNTbhbVC8xl3hIHUhSiRN_opb1z4hjcuoefJCjBJwmnkZyF_WAkuGkaViLsax5dvrxP3KAxNXwK5ac9tRzEPiGRKqggz3NnILnQclk81lTd14Zj6NO8lu2?></g></svg>